/* XPM */
static char *_b0f27f3c9864f3cda149d01839eb3e4FDNQ6NhhX66lf4Ol[] = {
/* columns rows colors chars-per-pixel */
"100 100 31 1 ",
"  c #790B10",
". c #7A5C3F",
"X c #9B0D14",
"o c #BF0F17",
"O c #D1101A",
"+ c #D7111B",
"@ c #E7121D",
"# c #FF171D",
"$ c #806042",
"% c #806142",
"& c #846443",
"* c #8A6846",
"= c #8D6A48",
"- c #96704B",
"; c #9A734D",
": c #9B744E",
"> c #9C744E",
", c #9D754E",
"< c #9E764F",
"1 c #9F774F",
"2 c #A07850",
"3 c #A27950",
"4 c #A07952",
"5 c #A37A52",
"6 c #A57C53",
"7 c #A57D53",
"8 c #A67C52",
"9 c #A87E53",
"0 c #A97F55",
"q c #AB8156",
"w c #AC8257",
/* pixels */
"$$$$$$$$$$$$$$$$$$$$$$$$$..............................................................%$$$$$$$$$$$$",
"$$$$$$$$$$$$$$$$$$$$$$$$$..............................................................%$$$$$$$$$$$$",
"$$$$$$$$$$$$$$$$$$$$$$$$$..............................................................%$$$$$$$$$$$$",
"$$$$$$$$$$$$$$$$$$$$$$$$$..............................................................%$$$$$$$$$$$$",
"$$$$$$$$$$$$$$$$$$$$$$$$$..............................................................%$$$$$$$$$$$$",
"$$$$$$$$$$$$$$$$$$$$$$$$$..............................................................%$$$$$$$$$$$$",
"$$$$$$$$$$$$$$$$$$$$$$$$$..............................................................$$$$$$$$$$$$$",
"$$$$$$$$$$$$$$$$$$$$$$$$$..............................................................$$$$$$$$$$$$$",
"$$$$$$$$$$$$$$$$$$$$$$$$$..............................................................%$$$$$$$$$$$$",
"$$$$$$$$$$$$$$$$$$$$$$$$$..............................................................%$$$$$$$$$$$$",
"$$$$$$$$$$$$$$$$$$$$$$$$$..............................................................%$$$$$$$$$$$$",
"$$$$$$$$$$$$$$$$$$$$$$$$$..............................................................%$$$$$$$%$$$$",
"************7777777777777444444444444:::::::::::::22222222224<775q434q54q1qqqqqqqqqqqqqqqwwwwwwwwwww",
"************7777777777777444444444444:++++++++++++++++++++++++873q5q51qq1q1qqqqqqqqqqqqqwwwwwwwwwwww",
"************7777777777777444444444444:++++++++++++++++++++++++8845q5q3q1q1qqqqqqqqqqqqqqwwwwwwwwwwww",
"************7777777777777444444444444:++++++++++++++++++++++++66q534q51q1q1qqqqqqqqqqqqqwwwwwwwwwwww",
"************7777777777777444444444444:++++++++++++++++++++++++661q1q1q1q1q1qqqqqqqqqqqqwwwwwwwwwwwww",
"************7777777777777444444444444:++++++++++++++++++++++++66q1q1q1q1q1qqqqqqqqqqqqqwwwwwwwwwwwww",
"************7777777777777444444444444:++++++++++++++++++++++++661qqq1q1q3q1qqqqqqqqqqqqwwwwwwwwwwwww",
"************777777777777744444444XXXXXoooooooooooooooooooooooo@@@@@@q1q131qqqqqqqqqqqqqwwwwwwwwwwwww",
"************777777777777744444444XXXXXoooooooooooooooooooooooo@@@@@@q;1qq31qqqqqqqqqqqqwwwwwwwwwwwww",
"************777777777777744444444XXXXXoooooooooooooooooooooooo@@@@@@1qq31qqqqqqqqqqqqqqwwwwwwqwwwwww",
"************777777777777744444444XXXXXoooooooooooooooooooooooo@@@@@@3qq1q1qqqqqqqqqqqqqwwwwwqqqqwwww",
"************777777777777744444444XXXXXoooooooooooooooooooooooo@@@@@+1qq11q1qqqqqqqqqqqqwwwwwqqqqwwww",
"************777777777777744444444XXXXXoooooooooooooooooooooooo@@@@@@3q1q8q8qqqqqqqqqqqqqqqqqqqqqwwww",
"&&&&&&&&&&&&<<<<<<<<<<<<<--------XXXXXoooooooooooooooooooooooo@@@@@@1qq388888888qq888888889989888888",
"&&&&&&&&&&&&<<<<<<<<<<<<<--------XXXXXoooooooooooooooooooooooo@@@@@@q33q8888888888888888888888888888",
"&&&&&&&&&&&&<<<<<<<<<<<<<----   XXXXXXOOOOOOOOOOOOOOOOOOOOOOOO++++++ooO18888888888888888888888888888",
"&&&&&&&&&&&&<<<<<<<<<<<<<----   XXXXXXOOOOOOOOOOOOOOOOOOOOOOOO++++++oooq8888888888888888888888888888",
"&&&&&&&&&&&&<<<<<<<<<<<<<----   XXXXXXOO###################OOO++++++ooo38888888888888888888888888888",
"&&&&&&&&&&&&<<<<<<<<<<<<<----   XXXXXXOO###################OOO++++OOooO;8888888888888888888888888888",
"&&&&&&&&&&&&<<<<<<<<<<<<<----   XXXXXXOO###################OOO+++++OooO88888888888888888888888888888",
"&&&&&&&&&&&&2>2>2>2>2>2>2----   XXXXXXOO###################OOO++++++ooo45777888888888888888888888888",
"&&&&&&&&&&&&>2>2>2>2>2>2>----   XXXXXXOO###################OOO++++++ooO75788888888888888888888888888",
"&&&&&&&&&&&&2>2>2>2>2>2>2----   XXXXXXOO####OOOOOOOOOOO####OOO++++++ooo78888888888888888888888888888",
"&&&&&&&&&&&&>2>2>2>2>2>2>----   XXXXXXOO####OOOOOOOOOOO####OOO++++++ooo78888888888888888888888888888",
"&&&&&&&&&&&&>2>>2>2>>2>>2----   XXXXXXOO####OOOOOOOOOOO####OOO++++++ooo78878888888888888888888888888",
"............5565555655652----   XXXXXXOO####OOOOOOOOOOO####OOO++++++ooo;<;;888888888888q999999999999",
"............5555555555556----   XXXXXXOO####OOOOOOOOOOO####OOO++++++ooo-;<;8888888888888999999999999",
"............5555555555555----   XXXXXXOO####OOOOOOOOOOO####OOO+++++OooO;<;<8888888888888999999999999",
"............5555555555555----   XXXXXXOO####OOOOOOOOOOO####OOO++++++ooo:;<;888888888888q88q899999999",
"............5555555555555----   XXXXXXOO####OOOOOOOOOOO####OOO++++++ooo:;;<88888888888888qq899999999",
"............5555555555555----   XXXXXXOO####OOOOOOOOOOO####OOO++++++ooo:<;,888888888888qq88q998q9999",
"............5555555555555----   XXXXXXOO####OOO####OOOO####OOO++++++ooo;<;,88888888888888q8899889999",
"............5555555555555----   XXXXXXOO####OOO####OOOO####OOO++++++ooo<;;;88888888888888qq3q8889999",
"............5555555555555----   XXXXXXOO####OOO####OOOO####OOO++++++ooo;;<,888888888888qq8q38qq89999",
"............5555555555556----   XXXXXXOO####OOO####OOOO####OOO++++++ooo-;,,888888888888888qqq8q89999",
"............5555555555552----   XXXXXXOO####OOO####OOOO####OOO++++++ooO,,,;888888888888q8q883q3q9999",
"............6555848838282----   XXXXXXOO####OOO####OOOO####OOO++++++ooo<::<7888888888889999999999999",
"............5555483484846----   XXXXXXOO####OOO####OOOO####OOO++++++ooo<::<77q8888888889999999999999",
".............................   XXXXXXOO####OOO####OOOO####OOO++++++ooo%%%%%&&&&&&&&&&&*************",
".............................   XXXXXXOO####OOO####OOOO####OOO++++++ooo%%$$%&&&&&&&&&&&*************",
".............................   XXXXXXOO####OOO####OOOO####OOO++++++ooo%%%%&&&&&&&&&&&&*************",
".............................   XXXXXXOO####OOO####OOOO####OOO++++++ooo%%%%&&&&&&&&&&&&*************",
".............................   XXXXXXOO####OOO####OOOO####OOO++++++ooo%%%%&&&&&&&&&&&&*************",
".............................   XXXXXXOO####OOO####OOOO####OOO++++++ooo%%%%&&&&&&&&&&&&*************",
".............................   XXXXXXOO####OOO############OOO++++++ooo%$$$&&&&&&&&&&&&*************",
".............................   XXXXXXOO####OOO############OOO++++++ooo%$$$&&&&&&&&&&&&*************",
".............................   XXXXXXOO####OOO############OOO++++++ooo%$$$&&&&&&&&&&&&*************",
".............................   XXXXXXOO####OOO############OOO++++++ooo%$$$&&&&&&&&&&&&*************",
".............................   XXXXXXOO####OOOOOOOOOOOOOOOOOO++++++ooo%$%%&&&&&&&&&&&&*************",
".............................   XXXXXXOO####OOOOOOOOOOOOOOOOOO++++++ooo%%%%&&&&&&&&&&&&*************",
"w0www00w0w0w-------------3334   XXXXXXOO####OOOOOOOOOOOOOOOOOO+++++Oooo*===............0000000000000",
"www0w0ww0w00-------------3334   XXXXXXOO####OOOOOOOOOOOOOOOOOO+++++OooO====............0000000000000",
"0ww0wqqqqqqq-------------3333   XXXXXXOO####OOOOOOOOOOOOOOOOOO++++++ooo*===............0000000000000",
"0ww0qqqqqqqq-------------8333   XXXXXXOO####################OO++++++ooo====............0000000000000",
"wwwwqqqqqqqq-------------3333   XXXXXXOO####################OO++++++ooo====............0000000000000",
"w00wqqqqqqqq-------------1333   XXXXXXOO####################OO++++++ooo====............9000000000000",
"qqqqqqqqqqqq-------------3333   XXXXXXOO####################OO++++++ooo====............q000000000000",
"qqqqqqqqqqqq-------------3333   XXXXXXOO####################OO++++++ooo====............9000000000000",
"qqqqqqqqqqqq-------------3333   XXXXXXOOOOOOOOOOOOOOOOOOOOOOOO++++++ooo====............q000000000000",
"qqqqqqqqqqqq-------------3333   XXXXXXOOOOOOOOOOOOOOOOOOOOOOOO++++++ooo====............7000000000000",
"qqqqqqqqqqqq-------------3333   XXXXXXOOOOOOOOOOOOOOOOOOOOOOOO++++++ooo====............0000000000000",
"qqqqqqqqqqqq-------------3333333XXXXXXoooooooooooooooooooooooo++++++=======............0000000000000",
"qqqqqqqqqqqq-------------3333333XXXXXXoooooooooooooooooooooooo++++++=======............0090000000097",
"88888888888888888888888881111111XXXXXXoooooooooooooooooooooooo++++++;;;;;;;............8787888888888",
"88888888888888888888888881111111XXXXXXoooooooooooooooooooooooo++++++:;;;;;;............8888888888888",
"88888888888888888888888881111111XXXXXXoooooooooooooooooooooooo++++++;;;;;;;............8888888888888",
"88888888888888888888888881111111XXXXXXoooooooooOooooooooooooooOO++++;;;;;;;............8888888888888",
"88888888888888888888888881111111XXXXXXooooooooo+ooooooooooooooOO++++;;;;;;;............8888888888888",
"8888888888888888888888888111111111111XXXXXXXXXXXXXXXXXXXXXXXXXX;;;;;;;;;;;:............8888888888888",
"8888888888888888888888888111111111111XXXXXXXXXXXXXXXXXXXXXXXXXX;;;;;;;;;;;;............8888888888888",
"8888888888888888888888888111111111111XXXXXXXXXXXXXXXXXXXXXXXXXX;;;;;;;;;;;>............8888888888888",
"8888888888888888888888888111111111111XXXXXXXXXXXXXXXXXXXXXXXXXX;;;;;;;;;;;>............8888888888888",
"8888888888888888888888888111111111111XXXXXXXXXXXXXXXXXXXXXXXXXX;;;;;;;;;;;;............8888888888888",
"8888888888888888888888888111111111111XXXXXXXXXXXXXXXXXXXXXXXXXX;;;;;;;;;;;;............8888888888888",
"8888888888888888888888888111111111111;;;;;;;;;;;;;1;1;;<><;1;1;;;;;;;;;;;;;............8888888888888",
"8888888888888888888888888111111111111-------------8888888888888888888888888............8888888888888",
"8888888888888888888888888111111111111-------------8888888888888888888888888............8888888888888",
"8888888888888888888888888111111111111-------------8888888888888888888888888............8888888888888",
"8888888888888888888888888111111111111-------------8888888888888888888888888............8888888888888",
"8888888888888888888888888111111111111-------------8888888888888888888888888............8888888888888",
"8888888888888888888888888111111111111-------------8888888888888888888888888............8888888888888",
"8888888888888888888888888111111111111-------------8888888888888888888888888............8888888888888",
"8888888888888888888888888111111111111-------------8888888888888888888888888............8888888888888",
"8888888888888888888888888111111111111-------------8888888888888888888888888............8888888888888",
"8888888888888888888888888111111111111-------------8888888888888888888888888............8888888888888",
"8888888888888888888888888111111111111-------------8888888888888888888888888............8888888888888",
"8888888888888888888888888111111111111-------------8888888888888888888888888............8888888888888",
"8888888888888888888888888111111111111-------------8888888888888888888888888............8888888888888"
};
