/* XPM */
static char *_f2a14d261764c63dbfa75e0882343f7m82qENgrGUQurr10[] = {
/* columns rows colors chars-per-pixel */
"100 100 16 1 ",
"  c #7C563D",
". c #7A5C3F",
"X c #4E4E4E",
"o c #6A6A6A",
"O c #727272",
"+ c #7C7C7C",
"@ c #806042",
"# c #8A6846",
"$ c #96704B",
"% c #9F774F",
"& c #A67C52",
"* c #A87E53",
"= c #A97F55",
"- c #AB8156",
"; c #AC8257",
": c gray52",
/* pixels */
"@@@@@@@@@@@@@@@@@@@@@@@@@..............................................................@@@@@@@@@@@@@",
"@@@@@@@@@@@@@@@@@@@@@@@@@..............................................................@@@@@@@@@@@@@",
"@@@@@@@@@@@@@@@@@@@@@@@@@..............................................................@@@@@@@@@@@@@",
"@@@@@@@@@@@@@@@@@@@@@@@@@..............................................................@@@@@@@@@@@@@",
"@@@@@@@@@@@@@@@@@@@@@@@@@..............................................................@@@@@@@@@@@@@",
"@@@@@@@@@@@@@@@@@@@@@@@@@..............................................................@@@@@@@@@@@@@",
"@@@@@@@@@@@@@@@@@@@@@@@@@..............................................................@@@@@@@@@@@@@",
"@@@@@@@@@@@@@@@@@@@@@@@@@..............................................................@@@@@@@@@@@@@",
"@@@@@@@@@@@@@@@@@@@@@@@@@..............................................................@@@@@@@@@@@@@",
"@@@@@@@@@@@@@@@@@@@@@@@@@..............................................................@@@@@@@@@@@@@",
"@@@@@@@@@@@@@@@@@@@@@@@@@..............................................................@@@@@@@@@@@@@",
"@@@@@@@@@@@@@@@@@@@@@@@@@..............................................................@@@@@@@@@@@@@",
";;;;;;;;;;;;                                                                           ;;;;;;;;;;;;;",
";;;;;;;;;;;;                                                                           ;;;;;;;;;;;;;",
";;;;;;;;;;;;                                                                           ;;;;;;;;;;;;;",
";;;;;;;;;;;;                                                                           ;;;;;;;;;;;;;",
";;;;;;;;;;;;                                                                           ;;;;;;;;;;;;;",
";;;;;;;;;;;;                                                                           ;;;;;;;;;;;;;",
";;;;;;;;;;;;                                                                           ;;;;;;;;;;;;;",
";;;;;;;;;;;;                                                                           ;;;;;;;;;;;;;",
";;;;;;;;;;;;                                                                           ;;;;;;;;;;;;;",
";;;;;;;;;;;;         OOOOOOOOOOOOO+++++++++++++++++++++++++++++++++:::::::::::         ;;;;;;;;;;;;;",
";;;;;;;;;;;;         OOOOOOOOOOOOO+++++++++++++++++++++++++++++++++:::::::::::         ;;;;;;;;;;;;;",
";;;;;;;;;;;;         OOOOOOOOOOOOO+++++++++++++++++++++++++++++++++:::::::::::         ;;;;;;;;;;;;;",
";;;;;;;;;;;;         OOOOOOOOOOOOO+++++++++++++++++++++++++++++++++:::::::::::         ;;;;;;;;;;;;;",
"&&&&&&&&&&&&         OOOOOOOOOOOOO+++++++++++++++++++++++++++++++++:::::::::::         &&&&&&&&&&&&&",
"&&&&&&&&&&&&         OOOOOOOOOOOOO+++++++++++++++++++++++++++++++++:::::::::::         &&&&&&&&&&&&&",
"&&&&&&&&&&&&         OOOOOOOOOOOOO+++++++++++++++++++++++++++++++++:::::::::::         &&&&&&&&&&&&&",
"&&&&&&&&&&&&         OOOOOOOOOOOOO+++++++++++++++++++++++++++++++++:::::::::::         &&&&&&&&&&&&&",
"&&&&&&&&&&&&         OOOOOOOOOOOOO+++++++++++++++++++++++++++++++++:::::::::::         &&&&&&&&&&&&&",
"&&&&&&&&&&&&         OOOOOOOOOOOOO+++++++++++++++++++++++++++++++++:::::::::::         &&&&&&&&&&&&&",
"&&&&&&&&&&&&         OOOOOOOOOOOOO+++++++++++++++++++++++++++++++++:::::::::::         &&&&&&&&&&&&&",
"&&&&&&&&&&&&         OOOOOOOOOOOOOOOOOOOOOOOOOOOOOOOOOOOOO++++++++++++++++++++         &&&&&&&&&&&&&",
"&&&&&&&&&&&&         OOOOOOOOOOOOOOOOOOOOOOOOOOOOOOOOOOOOO++++++++++++++++++++         &&&&&&&&&&&&&",
"&&&&&&&&&&&&         OOOOOOOOOOOOOOOOOOOOOOOOOOOOOOOOOOOOO++++++++++++++++++++         &&&&&&&&&&&&&",
"&&&&&&&&&&&&         OOOOOOOOOOOOOOOOOOOOOOOOOOOOOOOOOOOOO++++++++++++++++++++         &&&&&&&&&&&&&",
"&&&&&&&&&&&&         OOOOOOOOOOOOOOOOOOOOOOOOOOOOOOOOOOOOO++++++++++++++++++++         &&&&&&&&&&&&&",
"&&&&&&&&&&&&         OOOOOOOOOOOOOOOOOOOOOOOOOOOOOOOOOOOOO++++++++++++++++++++         *************",
"&&&&&&&&&&&&         OOOOOOOOOOOOOOOOOOOOOOOOOOOOOOOOOOOOO++++++++++++++++++++         *************",
"&&&&&&&&&&&&         OOOOOOOOOOOOOOOOOOOOOOOOOOOOOOOOOOOOO++++++++++++++++++++         *************",
"&&&&&&&&&&&&         OOOOOOOOOOOOOOOOOOOOOOOOOOOOOOOOOOOOO++++++++++++++++++++         *************",
"&&&&&&&&&&&&         OOOOOOOOOOOOOOOOOOOOOOOOOOOOOOOOOOOOO++++++++++++++++++++         *************",
"&&&&&&&&&&&&         OOOOOOOOOOOOOOOOOOOOOOOOOOOOOOOOOOOOO++++++++++++++++++++         *************",
"&&&&&&&&&&&&         OOOOOOOOOOOOOOOOOOOOOOOOOOOOOOOOOOOOOOOOOOOOOOOOOOOOOOOOO         *************",
"&&&&&&&&&&&&         OOOOOOOOOOOOOOOOOOOOOOOOOOOOOOOOOOOOOOOOOOOOOOOOOOOOOOOOO         *************",
"&&&&&&&&&&&&         OOOOOOOOOOOOOOOOOOOOOOOOOOOOOOOOOOOOOOOOOOOOOOOOOOOOOOOOO         *************",
"&&&&&&&&&&&&         OOOOOOOOOOOOOOOOOOOOOOOOOOOOOOOOOOOOOOOOOOOOOOOOOOOOOOOOO         *************",
"&&&&&&&&&&&&         OOOOOOOOOOOOOOOOOOOOOOOOOOOOOOOOOOOOOOOOOOOOOOOOOOOOOOOOO         *************",
"&&&&&&&&&&&&         OOOOOOOOOOOOOOOOOOOOOOOOOOOOOOOOOOOOOOOOOOOOOOOOOOOOOOOOO         *************",
"&&&&&&&&&&&&         OOOOOOOOOOOOOOOOOOOOOOOOOOOOOOOOOOOOOOOOOOOXXXXXXXOOOOOOO         *************",
"............         OOOOOOOOOOOOOOOOOOOOOOOOOOOOOOOOOOOOOOOOOOOXXXXXXXOOOOOOO         #############",
"............         OOOOOOOOOOOOOOOOOOOOOOOOOOOOOOOOOOOOOOOOOOOXXXXXXXOOOOOOO         #############",
"............         OOOOOOOOOOOOOOOOOOOOOOOOOOOOOOOOOOOOOOOOOOOXXXXXXXOOOOOOO         #############",
"............         OOOOOOOOOOOOOOOOOOOOOOOOOOOOOOOOOOOOOOOOOOOXXXXXXXOOOOOOO         #############",
"............         OOOOOOOOOOOOOOOOOOOOOOOOOOOOOOOOOOOOOOOOOOOooXXXXXOOOOOOO         #############",
"............         OOOOOOOOOOOOOOOOOOOOOOOOOOOOOOOOOOOOOOOOOOOooXXXXXOOOOOOO         #############",
"............         OOOOOOOOOOOOOOOOOOOOOOOOOOOOOOOOOOOOOOOOOOOooXXXXXOOOOOOO         #############",
"............         OOOOOOOOOOOOOOOOOOOOOOOOOOOOOOOOOOOOOOOOOOOXXXXXXXOOOOOOO         #############",
"............         OOOOOOOOOOOOOOOOOOOOOOOOOOOOOOOOOOOOOOOOOOOXXXXXXXOOOOOOO         #############",
"............         OOOOOOOOOOOOOOOOOOOOOOOOOOOOOOOOOOOOOOOOOOOXXXXXXXOOOOOOO         #############",
"............         OOOOOOOOOOOOOOOOOOOOOOOOOOOOOOOOOOOOOOOOOOOXXXXXXXOOOOOOO         #############",
"............         OOOOOOOOOOOOOOOOOOOOOOOOOOOOOOOOOOOOOOOOOOOXXXXXXXOOOOOOO         #############",
"------------         OOOOOOOOOOOOOOOOOOOOOOOOOOOOOOOOOOOOOOOOOOOOOOOOOOOOOOOOO         =============",
"------------         OOOOOOOOOOOOOOOOOOOOOOOOOOOOOOOOOOOOOOOOOOOOOOOOOOOOOOOOO         =============",
"------------         OOOOOOOOOOOOOOOOOOOOOOOOOOOOOOOOOOOOOOOOOOOOOOOOOOOOOOOOO         =============",
"------------         OOOOOOOOOOOOOOOOOOOOOOOOOOOOOOOOOOOOOOOOOOOOOOOOOOOOOOOOO         =============",
"------------         OOOOOOOOOOOOOOOOOOOOOOOOOOOOOOOOOOOOOOOOOOOOOOOOOOOOOOOOO         =============",
"------------         OOOOOOOOOOOOOoooooooooooooooooooooooooooooooooooooooooooo         =============",
"------------         OOOOOOOOOOOOOoooooooooooooooooooooooooooooooooooooooooooo         =============",
"------------         OOOOOOOOOOOOOoooooooooooooooooooooooooooooooooooooooooooo         =============",
"------------         OOOOOOOOOOOOOoooooooooooooooooooooooooooooooooooooooooooo         =============",
"------------         OOOOOOOOOOOOOoooooooooooooooooooooooooooooooooooooooooooo         =============",
"------------         OOOOOOOOOOOOOoooooooooooooooooooooooooooooooooooooooooooo         =============",
"------------         OOOOOOOOOOOOOoooooooooooooooooooooooooooooooooooooooooooo         =============",
"------------         OOOOOOOOOOOOOoooooooooooooooooooooooooooooooooooooooooooo         =============",
"&&&&&&&&&&&&         OOOOOOOOOOOOOoooooooooooooooooooooooooooooooooooooooooooo         &&&&&&&&&&&&&",
"&&&&&&&&&&&&         OOOOOOOOOOOOOoooooooooooooooooooooooooooooooooooooooooooo         &&&&&&&&&&&&&",
"&&&&&&&&&&&&         OOOOOOOOOOOOOoooooooooooooooooooooooooooooooooooooooooooo         &&&&&&&&&&&&&",
"&&&&&&&&&&&&                                                                           &&&&&&&&&&&&&",
"&&&&&&&&&&&&                                                                           &&&&&&&&&&&&&",
"&&&&&&&&&&&&                                                                           &&&&&&&&&&&&&",
"&&&&&&&&&&&&                                                                           &&&&&&&&&&&&&",
"&&&&&&&&&&&&                                                                           &&&&&&&&&&&&&",
"&&&&&&&&&&&&                                                                           &&&&&&&&&&&&&",
"&&&&&&&&&&&&                                                                           &&&&&&&&&&&&&",
"&&&&&&&&&&&&                                                                           &&&&&&&&&&&&&",
"&&&&&&&&&&&&                                                                           &&&&&&&&&&&&&",
"&&&&&&&&&&&&&&&&&&&&&&&&&%%%%%%%%%%%%$$$$$$$$$$$$$&&&&&&&&&&&&&&&&&&&&&&&&&............&&&&&&&&&&&&&",
"&&&&&&&&&&&&&&&&&&&&&&&&&%%%%%%%%%%%%$$$$$$$$$$$$$&&&&&&&&&&&&&&&&&&&&&&&&&............&&&&&&&&&&&&&",
"&&&&&&&&&&&&&&&&&&&&&&&&&%%%%%%%%%%%%$$$$$$$$$$$$$&&&&&&&&&&&&&&&&&&&&&&&&&............&&&&&&&&&&&&&",
"&&&&&&&&&&&&&&&&&&&&&&&&&%%%%%%%%%%%%$$$$$$$$$$$$$&&&&&&&&&&&&&&&&&&&&&&&&&............&&&&&&&&&&&&&",
"&&&&&&&&&&&&&&&&&&&&&&&&&%%%%%%%%%%%%$$$$$$$$$$$$$&&&&&&&&&&&&&&&&&&&&&&&&&............&&&&&&&&&&&&&",
"&&&&&&&&&&&&&&&&&&&&&&&&&%%%%%%%%%%%%$$$$$$$$$$$$$&&&&&&&&&&&&&&&&&&&&&&&&&............&&&&&&&&&&&&&",
"&&&&&&&&&&&&&&&&&&&&&&&&&%%%%%%%%%%%%$$$$$$$$$$$$$&&&&&&&&&&&&&&&&&&&&&&&&&............&&&&&&&&&&&&&",
"&&&&&&&&&&&&&&&&&&&&&&&&&%%%%%%%%%%%%$$$$$$$$$$$$$&&&&&&&&&&&&&&&&&&&&&&&&&............&&&&&&&&&&&&&",
"&&&&&&&&&&&&&&&&&&&&&&&&&%%%%%%%%%%%%$$$$$$$$$$$$$&&&&&&&&&&&&&&&&&&&&&&&&&............&&&&&&&&&&&&&",
"&&&&&&&&&&&&&&&&&&&&&&&&&%%%%%%%%%%%%$$$$$$$$$$$$$&&&&&&&&&&&&&&&&&&&&&&&&&............&&&&&&&&&&&&&",
"&&&&&&&&&&&&&&&&&&&&&&&&&%%%%%%%%%%%%$$$$$$$$$$$$$&&&&&&&&&&&&&&&&&&&&&&&&&............&&&&&&&&&&&&&",
"&&&&&&&&&&&&&&&&&&&&&&&&&%%%%%%%%%%%%$$$$$$$$$$$$$&&&&&&&&&&&&&&&&&&&&&&&&&............&&&&&&&&&&&&&",
"&&&&&&&&&&&&&&&&&&&&&&&&&%%%%%%%%%%%%$$$$$$$$$$$$$&&&&&&&&&&&&&&&&&&&&&&&&&............&&&&&&&&&&&&&"
};
