/* XPM */
static char *e15809b1be9647b1b8c09febd3203d20BW8ev5l3jpeYngnj[] = {
/* columns rows colors chars-per-pixel */
"100 100 16 1 ",
"  c #35241A",
". c #7C563D",
"X c #7A5C3F",
"o c #4E4E4E",
"O c #6A6A6A",
"+ c #727272",
"@ c #7C7C7C",
"# c #806042",
"$ c #8A6846",
"% c #96704B",
"& c #9F774F",
"* c #A67C52",
"= c #A87E53",
"- c #A97F55",
"; c #AB8156",
": c #AC8257",
/* pixels */
"#########################XXXXXXXXXXXXXXXXXXXXXXXXXXXXXXXXXXXXXXXXXXXXXXXXXXXXXXXXXXXXXX#############",
"#########################XXXXXXXXXXXXXXXXXXXXXXXXXXXXXXXXXXXXXXXXXXXXXXXXXXXXXXXXXXXXXX#############",
"#########################XXXXXXXXXXXXXXXXXXXXXXXXXXXXXXXXXXXXXXXXXXXXXXXXXXXXXXXXXXXXXX#############",
"#########################XXXXXXXXXXXXXXXXXXXXXXXXXXXXXXXXXXXXXXXXXXXXXXXXXXXXXXXXXXXXXX#############",
"#########################XXXXXXXXXXXXXXXXXXXXXXXXXXXXXXXXXXXXXXXXXXXXXXXXXXXXXXXXXXXXXX#############",
"#########################XXXXXXXXXXXXXXXXXXXXXXXXXXXXXXXXXXXXXXXXXXXXXXXXXXXXXXXXXXXXXX#############",
"#########################XXXXXXXXXXXXXXXXXXXXXXXXXXXXXXXXXXXXXXXXXXXXXXXXXXXXXXXXXXXXXX#############",
"#########################XXXXXXXXXXXXXXXXXXXXXXXXXXXXXXXXXXXXXXXXXXXXXXXXXXXXXXXXXXXXXX#############",
"#########################XXXXXXXXXXXXXXXXXXXXXXXXXXXXXXXXXXXXXXXXXXXXXXXXXXXXXXXXXXXXXX#############",
"#########################XXXXXXXXXXXXXXXXXXXXXXXXXXXXXXXXXXXXXXXXXXXXXXXXXXXXXXXXXXXXXX#############",
"#########################XXXXXXXXXXXXXXXXXXXXXXXXXXXXXXXXXXXXXXXXXXXXXXXXXXXXXXXXXXXXXX#############",
"#########################XXXXXXXXXXXXXXXXXXXXXXXXXXXXXXXXXXXXXXXXXXXXXXXXXXXXXXXXXXXXXX#############",
"::::::::::::...........................................................................:::::::::::::",
"::::::::::::...........................................................................:::::::::::::",
"::::::::::::...........................................................................:::::::::::::",
"::::::::::::...........................................................................:::::::::::::",
"::::::::::::...........................................................................:::::::::::::",
"::::::::::::...........................................................................:::::::::::::",
"::::::::::::...........................................................................:::::::::::::",
"::::::::::::...........................................................................:::::::::::::",
"::::::::::::...........................................................................:::::::::::::",
"::::::::::::.........+@@@@@@@@@@@@@@@@@@@@@@@@@@@@@@@@                        .........:::::::::::::",
"::::::::::::.........+@@@@@@@@@@@@@@@@@@@@@@@@@@@@@@@@                        .........:::::::::::::",
"::::::::::::.........+@@@@@@@@@@@@@@@@@@@@@@@@@@@@@@@@                        .........:::::::::::::",
"::::::::::::.........+@@@@@@@@@@@@@@@@@@@@@@@@@@@@@@@@                        .........:::::::::::::",
"************.........+@@@@@@@@@@@@@@@@@@@@@@@@@@@@@@@@                        .........*************",
"************.........+@@@@@@@@@@@@@@@@@@@@@@@@@@@@@@@@                        .........*************",
"************.........+@@@@@@@@@@@@@@@@@@@@@@@@@@@@@@@@                        .........*************",
"************.........+@@@@@@@@@@@@@@@@@@@@@@@@@@@@@@@@                        .........*************",
"************.........+@@@@@@@@@@@@@@@@@@@@@@@@@@@@@@@@                        .........*************",
"************.........+@@@@@@@@@@@@@@@@@@@@@@@@@@@@@@@@                        .........*************",
"************.........+@@@@@@@@@@@@@@@@@@@@@@@@@@@@@@@@                        .........*************",
"************.........+++++++++++++++++++++++++@@@@@@@@@@@@@@@@@@@             .........*************",
"************.........+++++++++++++++++++++++++@@@@@@@@@@@@@@@@@@@             .........*************",
"************.........+++++++++++++++++++++++++@@@@@@@@@@@@@@@@@@@             .........*************",
"************.........+++++++++++++++++++++++++@@@@@@@@@@@@@@@@@@@             .........*************",
"************.........+++++++++++++++++++++++++@@@@@@@@@@@@@@@@@@@             .........*************",
"************.........+++++++++++++++++++++++++@@@@@@@@@@@@@@@@@@@             .........=============",
"************.........+++++++++++++++++++++++++@@@@@@@@@@@@@@@@@@@             .........=============",
"************.........+++++++++++++++++++++++++@@@@@@@@@@@@@@@@@@@             .........=============",
"************.........+++++++++++++++++++++++++@@@@@@@@@@@@@@@@@@@             .........=============",
"************.........+++++++++++++++++++++++++@@@@@@@@@@@@@@@@@@@             .........=============",
"************.........+++++++++++++++++++++++++@@@@@@@@@@@@@@@@@@@             .........=============",
"************.........++++++++++++++++++++++++++++++++++++++++++++             .........=============",
"************.........++++++++++++++++++++++++++++++++++++++++++++             .........=============",
"************.........++++++++++++++++++++++++++++++++++++++++++++             .........=============",
"************.........++++++++++++++++++++++++++++++++++++++++++++             .........=============",
"************.........++++++++++++++++++++++++++++++++++++++++++++             .........=============",
"************.........++++++++++++++++++++++++++++++++++++++++++++             .........=============",
"************.........++++++++++++++++++++++++++++++++++++++++++++             .........=============",
"XXXXXXXXXXXX.........++++++++++++++++++++++++++++++++++++++++++++             .........$$$$$$$$$$$$$",
"XXXXXXXXXXXX.........++++++++++++++++++++++++++++++++++++++++++++             .........$$$$$$$$$$$$$",
"XXXXXXXXXXXX.........++++++++++++++++++++++++++++++++++++++++++++             .........$$$$$$$$$$$$$",
"XXXXXXXXXXXX.........++++++++++++++++++++++++++++++++++++++++++++             .........$$$$$$$$$$$$$",
"XXXXXXXXXXXX.........++++++++++++++++++++++++++++++++++++++++++++             .........$$$$$$$$$$$$$",
"XXXXXXXXXXXX.........++++++++++++++++++++++++++oooooo++++++++++++             .........$$$$$$$$$$$$$",
"XXXXXXXXXXXX.........++++++++++++++++++++++++++ooooooo+++++++++++             .........$$$$$$$$$$$$$",
"XXXXXXXXXXXX.........++++++++++++++++++++++++++ooooooo+++++++++++             .........$$$$$$$$$$$$$",
"XXXXXXXXXXXX.........++++++++++++++++++++++++++ooooooo+++++++++++             .........$$$$$$$$$$$$$",
"XXXXXXXXXXXX.........++++++++++++++++++++++++++ooooooo+++++++++++             .........$$$$$$$$$$$$$",
"XXXXXXXXXXXX.........++++++++++++++++++++++++++OOooooo+++++++++++             .........$$$$$$$$$$$$$",
"XXXXXXXXXXXX.........++++++++++++++++++++++++++OOooooo+++++++++++             .........$$$$$$$$$$$$$",
";;;;;;;;;;;;.........++++++++++++++++++++++++++OOooooo+++++++++++             .........-------------",
";;;;;;;;;;;;.........++++++++++++++++++++++++++ooooooo+++++++++++             .........-------------",
";;;;;;;;;;;;.........++++++++++++++++++++++++++ooooooo+++++++++++             .........-------------",
";;;;;;;;;;;;.........++++++++++++++++++++++++++ooooooo+++++++++++             .........-------------",
";;;;;;;;;;;;.........++++++++++++++++++++++++++ooooooo+++++++++++             .........-------------",
";;;;;;;;;;;;.........++++++++++++++++++++++++++ooooooo+++++++++++             .........-------------",
";;;;;;;;;;;;.........++++++++++++++++++++++++++++++++++++++++++++             .........-------------",
";;;;;;;;;;;;.........++++++++++++++++++++++++++++++++++++++++++++             .........-------------",
";;;;;;;;;;;;.........++++++++++++++++++++++++++++++++++++++++++++             .........-------------",
";;;;;;;;;;;;.........++++++++++++++++++++++++++++++++++++++++++++             .........-------------",
";;;;;;;;;;;;.........++++++++++++++++++++++++++++++++++++++++++++             .........-------------",
";;;;;;;;;;;;.........++++++++++++++++++++++++++++++++++++++++++++             .........-------------",
";;;;;;;;;;;;.........++++++++++++++++++++++++++++++++++++++++++++             .........-------------",
"************.........++++++++++++++++++++++++++++++++++++++++++++             .........*************",
"************.....................OOOOOOOOOOOOOOOOOOOOOOOOOOOOOOOO             .........*************",
"************.....................OOOOOOOOOOOOOOOOOOOOOOOOOOOOOOOO             .........*************",
"************.....................OOOOOOOOOOOOOOOOOOOOOOOOOOOOOOOO......................*************",
"************.....................OOOOOOOOOOOOOOOOOOOOOOOOOOOOOOOO......................*************",
"************.....................OOOOOOOOOOOOOOOOOOOOOOOOOOOOOOOO......................*************",
"************.....................OOOOOOOOOOOOOOOOOOOOOOOOOOOOOOOO......................*************",
"************.....................OOOOOOOOOOOOOOOOOOOOOOOOOOOOOOOO......................*************",
"************.....................OOOOOOOOOOOOOOOOOOOOOOOOOOOOOOOO......................*************",
"************.....................OOOOOOOOOOOOOOOOOOOOOOOOOOOOOOOO......................*************",
"************.....................OOOOOOOOOOOOOOOOOOOOOOOOOOOOOOOO......................*************",
"************.....................OOOOOOOOOOOOOOOOOOOOOOOOOOOOOOOO......................*************",
"*************************&&&&&&&&&&&&%%%%%%%%%%%%%*************************XXXXXXXXXXXX*************",
"*************************&&&&&&&&&&&&%%%%%%%%%%%%%*************************XXXXXXXXXXXX*************",
"*************************&&&&&&&&&&&&%%%%%%%%%%%%%*************************XXXXXXXXXXXX*************",
"*************************&&&&&&&&&&&&%%%%%%%%%%%%%*************************XXXXXXXXXXXX*************",
"*************************&&&&&&&&&&&&%%%%%%%%%%%%%*************************XXXXXXXXXXXX*************",
"*************************&&&&&&&&&&&&%%%%%%%%%%%%%*************************XXXXXXXXXXXX*************",
"*************************&&&&&&&&&&&&%%%%%%%%%%%%%*************************XXXXXXXXXXXX*************",
"*************************&&&&&&&&&&&&%%%%%%%%%%%%%*************************XXXXXXXXXXXX*************",
"*************************&&&&&&&&&&&&%%%%%%%%%%%%%*************************XXXXXXXXXXXX*************",
"*************************&&&&&&&&&&&&%%%%%%%%%%%%%*************************XXXXXXXXXXXX*************",
"*************************&&&&&&&&&&&&%%%%%%%%%%%%%*************************XXXXXXXXXXXX*************",
"*************************&&&&&&&&&&&&%%%%%%%%%%%%%*************************XXXXXXXXXXXX*************",
"*************************&&&&&&&&&&&&%%%%%%%%%%%%%*************************XXXXXXXXXXXX*************"
};
