/* XPM */
static char *_bbc92f3c90f48b8fbe20e4cacfd7084v9lSyHQTvKzl2AV9[] = {
/* columns rows colors chars-per-pixel */
"100 100 27 1 ",
"  c #7A5C3F",
". c #806042",
"X c #806142",
"o c #846443",
"O c #8A6846",
"+ c #8D6A48",
"@ c #946F4A",
"# c #96704B",
"$ c #9A734D",
"% c #9B744D",
"& c #9B744E",
"* c #9C744E",
"= c #9D754E",
"- c #9E764F",
"; c #9F774F",
": c #A07850",
"> c #A27950",
", c #A07952",
"< c #A37A52",
"1 c #A57B51",
"2 c #A57C53",
"3 c #A57D53",
"4 c #A67C52",
"5 c #A87E53",
"6 c #A97F55",
"7 c #AB8156",
"8 c #AC8257",
/* pixels */
".........................                                                               ............",
".........................                                                               ............",
".........................                                                              .............",
".........................                                                              .............",
".........................                                                              .............",
".........................                                                              .............",
".........................                                                              .............",
".........................                                                              .............",
".........................                                                              .............",
".........................                                                              .............",
".........................                                                              .............",
".........................                                                              .............",
"OOOOOOOOOOOO3333333333333,,,,,,,,,,,,&&&&&&&&&&&&&::::::::::,:33222222224447777788688688888888888888",
"OOOOOOOOOOOO3333333333333,,,,,,,,,,,,&&&&&&&&&&&&&::::::::::-,442222222244,7777788888888888888888888",
"OOOOOOOOOOOO3333333333333,,,,,,,,,,,,&&&&&&&&&&&&&::::::::::::44222222222238777788668888888888888888",
"OOOOOOOOOOOO3333333333333,,,,,,,,,,,,&&&&&&&&&&&&&::::::::::::24222222222448777778886858888888888888",
"OOOOOOOOOOOO3333333333333,,,,,,,,,,,,&&&&&&&&&&&&&::::::::::::22222222222226777768888688888888888888",
"OOOOOOOOOOOO3333333333333,,,,,,,,,,,,&&*&&&&&&&&&&::::::::::::22222222222226777788666868888888888888",
"OOOOOOOOOOOO3333333333333,,,,,,,,,,,,&$$&&&&&&&&&&::::::::::::22222222222228777886888888888888888888",
"OOOOOOOOOOOO3333333333333,,,,,,,,,,,,&$-&&&&&&&&&&::::::::::::22222222222226777688688668888888888888",
"OOOOOOOOOOOO3333333333333,,,,,,,,,,,,$-$&&&&&&&&&&::::::::::::22222222242228868866888688888888888888",
"OOOOOOOOOOOO3333333333333,,,,,,,,,,,,$$$&&&&&&&&&&::::::::::::22222222242226886888868688888888888888",
"OOOOOOOOOOOO3333333333333,,,,,,,,,,,,$&&&&&&&&%-&&::::::::::::22222222442228668888868868888888888888",
"OOOOOOOOOOOO3333333333333,,,,,,,,,,,:&&&&&&&-%-%&&::::::::::::22222222442228888666886888888888888888",
"OOOOOOOOOOOO3333333333333,,,,,,,,,,,,$&*%%%%%%%%--:::;;;::;:::33444444444556666688668568668688688888",
"oooooooooooo-------------#######@#####@#####%@##@#%%%$-%&&%%&%13444444444114555455445555115645614444",
"oooooooooooo-------------#######$#####$#####@###@$%%%%%%&&&$%$51444444444444544414444444161111114444",
"oooooooooooo-------------########@#####@####@###@@%%%%%%&&&$%%44444444444444444444444444116161614444",
"oooooooooooo-------------#######################@@%%%%%%%%%%%%34444444444444444444444444161611114444",
"oooooooooooo-------------#######################@$%%%%%%%%%%%%44444444444444444444444444111161614444",
"oooooooooooo-------------#########################%%%%%%%%%%%%44444444444444444444444444161111164444",
"oooooooooooo-------------########################@%%%%%%%%%%%%44444444444444444444444444116161114444",
"oooooooooooo:*:*:*:*:*:*>#########################$$%%%%%%%%%%34444444444444444444444444161611164444",
"oooooooooooo*:*:*:*:*:*:-#########################&&%%%%%%%%%%44444444444444444444444444111161114444",
"oooooooooooo:*:*:*:*:*:*:@########################&&%%$$%%%%%%44444444444444444444444444161516164444",
"oooooooooooo*:*:*:*:*:*:>@#######################@&&%$$&%%%%%%44444444444444444444444444151111114444",
"oooooooooooo:*:*:*:*,-:*$#########################:&&&&&%%%%%%44444444114444444411114444151111114444",
"            <<<<<<<<<<<<<@########################@@@@@@@@@@@@%%***********4444461614416556565654666",
"            <<<<<<<<<<<<<#########################@@@@@@@@@@@@%%***********444441116>616555555555616",
"            <<<<<<<<<<<<<#########################@@@@@@@@@@@#%%***********4444461161116555555555446",
"            <<<<<<<<<<<<<#########################@@@@@@@@@@@@%%********%%%1444416111115555555555555",
"            <<<<<<<<<<<<<########################@@@@@@@@@@@@@%:********%-%5444411616165555555555555",
"            <<<<<<<<<<<<<#########################@@@@@@@@@@@@%-********%%%1444411115115555555555555",
"            <<<<<<<<<<<<<#########################@@@@@@@@@@@@-%********%=%4444461611155555555555555",
"            <<<<<<<<<<<<<@########################@@@@@@@@@@@@**********=%:4444411161116555555555555",
"            <<<<<<<<<<<<2@########################@@@@@@@@@@@@**********%=%4444461116116555555555555",
"            <<<<<<<<<<<<2@########################@@@@@@@@@@@@************%6444416161614555555555555",
"            <<<<<<<<<<<<2#########################@@@@@@@@@@@@***********:%>444411111116555555555555",
"            <<<<4>>4>4<<<@@#######################@@@@@@@@@@@@**-&&&%%&-&%%3331344114445555555555555",
"            <<<<>44>>>>2<@########################@@@@@@@@@@@@**&--&%%-:&$%4333144414145555555555555",
"                                                              ..XXXXX .....oooooOoooOooOOOOOOOOOOOOO",
"                                                              ..XXXXXX.o...ooooooooooooOOOOOOOOOOOOO",
"                                                              ..XXXXXXXXo.XooooooooooooOOOOOOOOOOOOO",
"                                                              .oXXXXXXXX..XooooooooooooOOOOOOOOOOOOO",
"                                                              ..XXXXXXXX.oXooooooooooooOOOOOOOOOOOOO",
"                                                              ..XXXXXXXX..XooooooooooooOOOOOOOOOOOOO",
"                                                              ..XXXXXXXX...ooooooooooooOOOOOOOOOOOOO",
"                                                              ..XXXXXXXX...ooooooooooooOOOOOOOOOOOOO",
"                                                              ..XXXXXXXX...ooooooooooooOOOOOOOOOOOOO",
"                                                              ..XXXXXXXX.o.ooooooooooooOOOOOOOOOOOOO",
"                                                              .o.oXX.......ooooooooooooOOOOOOOOOOOOO",
"     .                                                        ....XXo......ooooooooooooOOOOOOOOOOOOO",
"866886866866##@##########>>>>>>>>>>>>=%=%;%-%-%-%-111111111133+++++++++++++            4666666666666",
"888686888666#############>>>>>>>>>>>>===-%-%;%-%-;1111111133,3+++++++++++++            5666666666666",
"688688687777#############4>>>>>>>>>>>%============111111111111+++++++++++++            6666666666666",
"688668687777#############>>>>>>>>>>>::============111111111111+++++++++++++            6666666666666",
"888886887777#############>>>>>>>>>>>>=============111111111111+++++++++++++            6666666666666",
"866888867777#############>>>>>>>>>>>>%============111111111111+++++++++++++            6666666666666",
"788666887777#############>>>>>>>>>>>>-%-==========111111111111+++++++++++++            6666666666666",
"768888867777#############>>>>>>>>>>>>%-%==========111111111111+++++++++++++            6666666666666",
"776888867777#############>>>>>>>>>>>>%%-==========111111111111+++++++++++++            6666666666666",
"778866887777#############>>>>>>>>>>>>--&==========111111111111+++++++++++++            6666666666666",
"777777777777#############>>>>>>>>>>>>%%>-%--&>:*==111111111111+++++++++++++            6666666666666",
"777777777777#############>>>>>>>>>>>>%%>%-%%%-#*==111111111111+++++++++++++            6666666666666",
"777777777777#############>>>>>>>>>>>>>%--%%>-%**=%111114111111+++++++++++++            6666666666666",
"4444444444444444444444444;;;;;;;>%>>>#%#**%#*%****==========%:#*%#**#-#--#-            4>6>644414444",
"4444444444444444444444444;;;;;;;->*#>-#-##%*@-#-*#============%%*#-#-#-##--            4444444444444",
"4444444444444444444444444;;;;;;;>%>::#-#**%#**-@**============#*%%#-#-#--##            4444444444444",
"4444444444444444444444444;;;;;;;->---##-#-%*@-@*##============*%*%*#-#-##-#            4444444444444",
"4444444444444444444444444;;;;;;;>%>->*-#-#-#-#-***============*##%#-#-#--#-            4444444444444",
"4444444444444444444444444;;;;;;;>>&&;#%%@-@-@-#-%%===========%$%#-#-#-#-%#%            4444444444444",
"4444444444444444444444444;;;;;;;%>;>>%-#-%-#**-@$%===========%$%-#-#-#-#***            4444444444444",
"4444444444444444444444444;;;;;;;&;:>>%@%#-@-@*##$$============#%#-#-#-#-#%#            4444444444444",
"4444444444444444444444444;;;;;;;>;&&%%%%-@**-%-*$$============%%-#-#-#*%*%*            4444444444444",
"4444444444444444444444444;;;;;;;&>::>%#&@-***@@-$$%===========%%#-#-#%%%#*#            4444444444444",
"4444444444444444444444444;;;;;;;:>&>>%%%**@*#-**$$============%%-#-#*%*#%%-            4444444444444",
"4444444444444444444444444;;;;;;;>-->-#%%@-*--%#-%%==>=======%=%%#*#-*#*%#*#            4444444444444",
"4444444444444444444444444;;;;;;;>#>->@##@#@@@@####41144144>444446442444>646            4444444444444",
"4444444444444444444444444;;;;;;;>%>;>@############44444444444444>4444444444            4444444444444",
"4444444444444444444444444;;;;;;;>%>&>@############4444444444444444444444444            4444444444444",
"4444444444444444444444444;;;;;;;>>%;>@@###########4444444444444444444444444            4444444444444",
"4444444444444444444444444;;;;;;;%>>>&@############4444444444444444444444444            4444444444444",
"4444444444444444444444444;;;;;;;=>%%;#############4444444444444444444444444            4444444444444",
"4444444444444444444444444;;;;;;;>=>;;#############4444444444444444444444444            4444444444444",
"4444444444444444444444444;;;;;;;=>=;>@############4444444444444444444444444            4444444444444",
"4444444444444444444444444;;;;;;;>=>=;#############4444444444444444444444444            4444444444444",
"4444444444444444444444444;;;;;;;;;;;;#############4444444444444444444444444            4444444444444",
"4444444444444444444444444;;;;;;;;;;;;#############4444444444444444444444444            4444444444444",
"4444444444444444444444444;;;;;;;;;;;;#############4444444444444444444444444            4444444444444",
"4444444444444444444444444;;;;;;;;;;;;#############4444444444444444444444444            4444444444444"
};
