/* XPM */
static char *result[] = {
/* columns rows colors chars-per-pixel */
"100 100 11 1 ",
"  c black",
". c #781F01",
"X c #50351B",
"o c #6A3C20",
"O c #703F21",
"+ c #5E442B",
"@ c #8A6846",
"# c #AE8300",
"$ c #AC8257",
"% c #DFDFDF",
"& c white",
/* pixels */
"@@@@@@@@@@@@XXXXXXXXXXXXXXXXXXXXXXXXXXXXXXXXXXXXXXXXXXXXXXXXXXXXXXXXXXXXXXXXXXXXXXXXXXX$$$$$$$$$$$$$",
"@@@@@@@@@@@@XXXXXXXXXXXXXXXXXXXXXXXXXXXXXXXXXXXXXXXXXXXXXXXXXXXXXXXXXXXXXXXXXXXXXXXXXXX$$$$$$$$$$$$$",
"@@@@@@@@@@@@XXXXXXXXXXXXXXXXXXXXXXXXXXXXXXXXXXXXXXXXXXXXXXXXXXXXXXXXXXXXXXXXXXXXXXXXXXX$$$$$$$$$$$$$",
"@@@@@@@@@@@@XXXXXXXXXXXXXXXXXXXXXXXXXXXXXXXXXXXXXXXXXXXXXXXXXXXXXXXXXXXXXXXXXXXXXXXXXXX$$$$$$$$$$$$$",
"@@@@@@@@@@@@XXXXXXXXXXXXXXXXXXXXXXXXXXXXXXXXXXXXXXXXXXXXXXXXXXXXXXXXXXXXXXXXXXXXXXXXXXX$$$$$$$$$$$$$",
"@@@@@@@@@@@@XXXXXXXXXXXXXXXXXXXXXXXXXXXXXXXXXXXXXXXXXXXXXXXXXXXXXXXXXXXXXXXXXX&&&&&&&&&&&&&&&&&&$$$$",
"@@@@&&&&&&&&&&&&&&&&&&XXXXXXXXXXXXXXXXXXXXXXXXXXXXXXXXXXXXXXXXXXXXXXXXXXXXXXXX&&&&&&&&&&&&&&&&&&$$$$",
"@@@@&&&&&&&&&&&&&&&&&&XXXXXXXXXXXXXXXXXXXXXXXXXXXXXXXXXXXXXXXXXXXXXXXXXXXXXXXX&&&&&&&&&&&&&&&&&&$$$$",
"@@@@&&&&&&&&&&&&&&&&&&XXXXXXXXXXXXXXXXXXXXXXXXXXXXXXXXXXXXXXXXXXXXXXXXXXXXXXXX&&&&&&&&&&&&&&&&&&$$$$",
"@@@@&&&&&&&&&&&&&&&&&&XXXXXXXXXXXXXXXXXXXXXXXXXXXXXXXXXXXXXXXXXXXXXXXXXXXXXXXX&&&&&&&&&&&&&&&&&&$$$$",
"@@@@&&&&&&&&&&&&&&&&&&XXXXXXXXXXXXXXXXXXXXXXXXXXXXXXXXXXXXXXXXXXXXXXXXXXXXXXXX&&&&&        &&&&&$$$$",
"@@@@&&&&&        &&&&&XXXXXXXXXXXXXXXXXXXXXXXXXXXXXXXXXXXXXXXXXXXXXXXXXXXXXXXX&&&&&        &&&&&$$$$",
"@@@@&&&&&        &&&&&XXXXXXXXXXXXXXXXXXXXXXXXXXXXXXXXXXXXXXXXXXXXXXXXXXXXXXXX&&&&&        &&&&&$$$$",
"XXXX&&&&&        &&&&&XXXXXXXXXXXXXXXXXXXXXXXXXXXXXXXXXXXXXXXXXXXXXXXXXXXXXXXX&&&&&        &&&&&XXXX",
"XXXX&&&&&        &&&&&XXXXXXXXXXXXXXXXXXXXXXXXXXXXXXXXXXXXXXXXXXXXXXXXXXXXXXXX&&&&&        &&&&&XXXX",
"XXXX&&&&&        &&&&&XXXXXXXXXXXXXXXXXXXXXXXXXXXXXXXXXXXXXXXXXXXXXXXXXXXXXXXX&&&&&        &&&&&XXXX",
"XXXX&&&&&        &&&&&      ooooooooooooooooooooooooooooooooooooooooooo       &&&&&        &&&&&XXXX",
"XXXX&&&&&        &&&&&      ooooooooooooooooooooooooooooooooooooooooooo       &&&&&        &&&&&XXXX",
"XXXX&&&&&        &&&&&      ooooooooooooooooooooooooooooooooooooooooooo       &&&&&&&&&&&&&&&&&&XXXX",
"XXXX&&&&&&&&&&&&&&&&&&      ooooooooooooooooooooooooooooooooooooooooooo       &&&&&&&&&&&&&&&&&&XXXX",
"XXXX&&&&&&&&&&&&&&&&&&      ooooooooooooooooooooooooooooooooooooooooooo       &&&&&&&&&&&&&&&&&&XXXX",
"XXXX&&&&&&&&&&&&&&&&&&      ooooooooooooooooooooooooooooooooooooooooooo       &&&&&&&&&&&&&&&&&&XXXX",
"XXXX&&&&&&&&&&&&&&&&&&      ooooooooooooooooooooooooooooooooooooooooooo       &&&&&&&&&&&&&&&&&&XXXX",
"XXXX&&&&&&&&&&&&&&&&&&      ooooooooooooooooooooooooooooooooooooooooooo               XXXXXXXXXXXXXX",
"XXXXXXXXXXXXX               ooooooooooooooooooooooooooooooooooooooooooo               XXXXXXXXXXXXXX",
"XXXXXXXXXXXXX               ooooooooooooooooooooooooooooooooooooooooooo               XXXXXXXXXXXXXX",
"XXXXXXXXXXXXX               OOOOOOOOOOO######################OOOOOOOOOO               XXXXXXXXXXXXXX",
"XXXXXXXXXXXXX               OOOOOOOOOOO######################OOOOOOOOOO               XXXXXXXXXXXXXX",
"XXXXXXXXXXXXX               O%%%%%%%%OO######################O%%%%%%%%O               XXXXXXXXXXXXXX",
"XXXXXXXXXXXXX               O%%%%%%%%OO######################O%%%%%%%%O               XXXXXXXXXXXXXX",
"XXXXXXXXXXXXX               O%%%%%%%%OO######################O%%%%%%%%O               XXXXXXXXXXXXXX",
"XXXXXXXXXXXXX               O%%%%%%%%OO######OOOOOOOOOO######O%%%%%%%%O               XXXXXXXXXXXXXX",
"XXXXXXXXXXXXX               O%%%%%%%%OO######OOOOOOOOOO######O%%%%%%%%O               XXXXXXXXXXXXXX",
"XXXXXXXXXXXXX................%%%%%%%%.........................%%%%%%%%.................XXXXXXXXXXXXX",
"XXXXXXXXXXXXX................%%%%%%%%.........................%%%%%%%%.................XXXXXXXXXXXXX",
"XXXXXXXXXXXXX................%%%%%%%%.........................%%%%%%%%.................XXXXXXXXXXXXX",
"XXXXXXXXXXXXX................%%%%%%%%.........................%%%%%%%%.................XXXXXXXXXXXXX",
"XXXXXXXXXXXXX................%%%%%%%%.........................%%%%%%%%.................XXXXXXXXXXXXX",
"XXXXXXXXXXXXX................%%%%%%%%.........................%%%%%%%%.................XXXXXXXXXXXXX",
"XXXXXXXXXXXXX................%%%%%%%%.........................%%%%%%%%.................XXXXXXXXXXXXX",
"XXXXXXXXXXXXX................%%%%%%%%.........................%%%%%%%%.................XXXXXXXXXXXXX",
"XXXXXXXXXXXXX................%%%%%%%%.........................%%%%%%%%.................XXXXXXXXXXXXX",
"XXXXXXXXXXXXX................%%%%%%%%.........................%%%%%%%%.................XXXXXXXXXXXXX",
"XXXXXXXXXXXXX................%%%%%%%%.........................%%%%%%%%.................XXXXXXXXXXXXX",
"XXXXXXXXXXXXX................%%%%%%%%.........................%%%%%%%%.................XXXXXXXXXXXXX",
"XXXXXXXXXXXXX..........................................................................XXXXXXXXXXXXX",
"XXXXXXXXXXXXX..........................................................................XXXXXXXXXXXXX",
"XXXXXXXXXXXXX..........................................................................XXXXXXXXXXXXX",
"XXXXXXXXXXXXX..........................................................................XXXXXXXXXXXXX",
"XXXXXXXXXXXXX..........................................................................XXXXXXXXXXXXX",
"XXXXXXXXXXXXX..........................................................................XXXXXXXXXXXXX",
"XXXXXXXXXXXXX..........................................................................XXXXXXXXXXXXX",
"XXXXXXXXXXXXX..........................................................................XXXXXXXXXXXXX",
"XXXXXXXXXXXXX..........................................................................XXXXXXXXXXXXX",
"XXXXXXXXXXXXX..........................................................................XXXXXXXXXXXXX",
"XXXXXXXXXXXXX..........................................................................XXXXXXXXXXXXX",
"XXXXXXXXXXXXX..%%%%%%%%....................................................%%%%%%%%....XXXXXXXXXXXXX",
"XXXXXXXXXXXXX..%%%%%%%%....................................................%%%%%%%%....XXXXXXXXXXXXX",
"XXXXXXXXXXXXX..%%%%%%%%....................................................%%%%%%%%....XXXXXXXXXXXXX",
"XXXXXXXXXXXXX..%%%%%%%%....................................................%%%%%%%%....XXXXXXXXXXXXX",
"XXXXXXXXXXXXX..%%%%%%%%....................................................%%%%%%%%....XXXXXXXXXXXXX",
"+++++++++++++++%%%%%%%%+++++++++++++++++#####OOOOOOOOOO#####+++++++++++++++%%%%%%%%+++++++++++++++++",
"+++++++++++++++%%%%%%%%+++++++++++++++++#####OOOOOOOOOO#####+++++++++++++++%%%%%%%%+++++++++++++++++",
"+++++++++++++++%%%%%%%%+++++++++++++++++####################+++++++++++++++%%%%%%%%+++++++++++++++++",
"+++++++++++++++%%%%%%%%+++++++++++++++++####################+++++++++++++++%%%%%%%%+++++++++++++++++",
"+++++++++++++++%%%%%%%%+++++++++++++++++####################+++++++++++++++%%%%%%%%+++++++++++++++++",
"XXXXXXXXXXXXXoo%%%%%%%%ooooooooooooooooo####################ooooooooooooooo%%%%%%%%oooXXXXXXXXXXXXXX",
"XXXXXXXXXXXXXoo%%%%%%%%ooooooooooooooooo####################ooooooooooooooo%%%%%%%%oooXXXXXXXXXXXXXX",
"XXXXXXXXXXXXXoo%%%%%%%%oooooooooooooooooooooooooooooooooooooooooooooooooooo%%%%%%%%oooXXXXXXXXXXXXXX",
"XXXXXXXXXXXXXoo%%%%%%%%oooooooooooooooooooooooooooooooooooooooooooooooooooo%%%%%%%%oooXXXXXXXXXXXXXX",
"XXXXXXXXXXXXXoo%%%%%%%%oooooooooooooooooooooooooooooooooooooooooooooooooooo%%%%%%%%oooXXXXXXXXXXXXXX",
"XXXXXXXXXXXXXoo%%%%%%%%oooooooooooooooooooooooooooooooooooooooooooooooooooo%%%%%%%%oooXXXXXXXXXXXXXX",
"XXXXXXXXXXXXXoo%%%%%%%%oooooooooooooooooooooooooooooooooooooooooooooooooooo%%%%%%%%oooXXXXXXXXXXXXXX",
"XXXXXXXXXXXXXoooooooooooooooooooooooooooooooooooooooooooooooooooooooooooooooooooooooooXXXXXXXXXXXXXX",
"XXXXXXXXXXXXXoooooooooooooooooooooooooooooooooooooooooooooooooooooooooooooooooooooooooXXXXXXXXXXXXXX",
"XXXXXXXXXXXXXoooooooooooooooooooooooooooooooooooooooooooooooooooooooooooooooooooooooooXXXXXXXXXXXXXX",
"XXXXXXXXXXXXXoooooooooooooooooooooooooooooooooooooooooooooooooooooooooooooooooooooooooXXXXXXXXXXXXXX",
"XXXXXXXXXXXXXoooooooooooooooooooooooooooooooooooooooooooooooooooooooooooooooooooooooooXXXXXXXXXXXXXX",
"XXXXXXXXXXXXXoooooooooooooooooooooooooooooooooooooooooooooooooooooooooooooooooooooooooXXXXXXXXXXXXXX",
"XXXXXXXXXXXXXoooooooooooooooooooooooooooooooooooooooooooooooooooooooooooooooooooooooooXXXXXXXXXXXXXX",
"XXXXXXXXXXXXXoooooooooooooooooooooooooooooooooooooooooooooooooooooooooooooooooooooooooXXXXXXXXXXXXXX",
"XXXXXXXXXXXXXoooooooooooooooooooooooooooooooooooooooooooooooooooooooooooooooooooooooooXXXXXXXXXXXXXX",
"XXXXXXXXXXXXXoooooooooooooooooooooooooooooooooooooooooooooooooooooooooooooooooooooooooXXXXXXXXXXXXXX",
"XXXXXXXXXXXXXoooooooooooooooooooooooooooooooooooooooooooooooooooooooooooooooooooooooooXXXXXXXXXXXXXX",
"XXXXXXXXXXXXXoooooooooooooooooooooooooooooooooooooooooooooooooooooooooooooooooooooooooXXXXXXXXXXXXXX",
"XXXXXXXXXXXXXoooooooooooooooooooooooooooooooooooooooooooooooooooooooooooooooooooooooooXXXXXXXXXXXXXX",
"XXXXXXXXXXXXXoooooooooooooooooooooooooooooooooooooooooooooooooooooooooooooooooooooooooXXXXXXXXXXXXXX",
"XXXXXXXXXXXXXoooooooooooooooooooooooooooooooooooooooooooooooooooooooooooooooooooooooooXXXXXXXXXXXXXX",
"XXXXXXXXXXXXXXXXXXXXXXXXXXXXXXXXXXXXXXXXXXXXXXXXXXXXXXXXXXXXXXXXXXXXXXXXXXXXXXXXXXXXXXXXXXXXXXXXXXXX",
"XXXXXXXXXXXXXXXXXXXXXXXXXXXXXXXXXXXXXXXXXXXXXXXXXXXXXXXXXXXXXXXXXXXXXXXXXXXXXXXXXXXXXXXXXXXXXXXXXXXX",
"XXXXXXXXXXXXXXXXXXXXXXXXXXXXXXXXXXXXXXXXXXXXXXXXXXXXXXXXXXXXXXXXXXXXXXXXXXXXXXXXXXXXXXXXXXXXXXXXXXXX",
"XXXXXXXXXXXXXXXXXXXXXXXXXXXXXXXXXXXXXXXXXXXXXXXXXXXXXXXXXXXXXXXXXXXXXXXXXXXXXXXXXXXXXXXXXXXXXXXXXXXX",
"XXXXXXXXXXXXXXXXXXXXXXXXXXXXXXXXXXXXXXXXXXXXXXXXXXXXXXXXXXXXXXXXXXXXXXXXXXXXXXXXXXXXXXXXXXXXXXXXXXXX",
"XXXXXXXXXXXXXXXXXXXXXXXXXXXXXXXXXXXXXXXXXXXXXXXXXXXXXXXXXXXXXXXXXXXXXXXXXXXXXXXXXXXXXXXXXXXXXXXXXXXX",
"XXXXXXXXXXXXXXXXXXXXXXXXXXXXXXXXXXXXXXXXXXXXXXXXXXXXXXXXXXXXXXXXXXXXXXXXXXXXXXXXXXXXXXXXXXXXXXXXXXXX",
"XXXXXXXXXXXXXXXXXXXXXXXXXXXXXXXXXXXXXXXXXXXXXXXXXXXXXXXXXXXXXXXXXXXXXXXXXXXXXXXXXXXXXXXXXXXXXXXXXXXX",
"XXXXXXXXXXXXXXXXXXXXXXXXXXXXXXXXXXXXXXXXXXXXXXXXXXXXXXXXXXXXXXXXXXXXXXXXXXXXXXXXXXXXXXXXXXXXXXXXXXXX",
"XXXXXXXXXXXXXXXXXXXXXXXXXXXXXXXXXXXXXXXXXXXXXXXXXXXXXXXXXXXXXXXXXXXXXXXXXXXXXXXXXXXXXXXXXXXXXXXXXXXX",
"XXXXXXXXXXXXXXXXXXXXXXXXXXXXXXXXXXXXXXXXXXXXXXXXXXXXXXXXXXXXXXXXXXXXXXXXXXXXXXXXXXXXXXXXXXXXXXXXXXXX",
"XXXXXXXXXXXXXXXXXXXXXXXXXXXXXXXXXXXXXXXXXXXXXXXXXXXXXXXXXXXXXXXXXXXXXXXXXXXXXXXXXXXXXXXXXXXXXXXXXXXX"
};
