/* XPM */
static char *result[] = {
/* columns rows colors chars-per-pixel */
"100 100 9 1 ",
"  c #50351B",
". c #6A3C20",
"X c #703F21",
"o c #5E442B",
"O c #7A5C3F",
"+ c #806042",
"@ c #8A6846",
"# c #AE8300",
"$ c #AC8257",
/* pixels */
"+++++++++++++++++++++++++OOOOOOOOOOOOOOOOOOOOOOOOOOOOOOOOOOOOOOOOOOOOOOOOOOOOOOOOOOOOOO+++++++++++++",
"+++++++++++++++++++++++++OOOOOOOOOOOOOOOOOOOOOOOOOOOOOOOOOOOOOOOOOOOOOOOOOOOOOOOOOOOOOO+++++++++++++",
"+++++++++++++++++++++++++OOOOOOOOOOOOOOOOOOOOOOOOOOOOOOOOOOOOOOOOOOOOOOOOOOOOOOOOOOOOOO+++++++++++++",
"+++++++++++++++++++++++++OOOOOOOOOOOOOOOOOOOOOOOOOOOOOOOOOOOOOOOOOOOOOOOOOOOOOOOOOOOOOO+++++++++++++",
"+++++++++++++++++++++++++OOOOOOOOOOOOOOOOOOOOOOOOOOOOOOOOOOOOOOOOOOOOOOOOOOOOOOOOOOOOOO+++++++++++++",
"+++++++++++++++++++++++++OOOOOOOOOOOOOOOOOOOOOOOOOOOOOOOOOOOOOOOOOOOOOOOOOOOOOOOOOOOOOO+++++++++++++",
"+++++++++++++++++++++++++OOOOOOOOOOOOOOOOOOOOOOOOOOOOOOOOOOOOOOOOOOOOOOOOOOOOOOOOOOOOOO+++++++++++++",
"+++++++++++++++++++++++++OOOOOOOOOOOOOOOOOOOOOOOOOOOOOOOOOOOOOOOOOOOOOOOOOOOOOOOOOOOOOO+++++++++++++",
"+++++++++++++++++++++++++OOOOOOOOOOOOOOOOOOOOOOOOOOOOOOOOOOOOOOOOOOOOOOOOOOOOOOOOOOOOOO+++++++++++++",
"+++++++++++++++++++++++++OOOOOOOOOOOOOOOOOOOOOOOOOOOOOOOOOOOOOOOOOOOOOOOOOOOOOOOOOOOOOO+++++++++++++",
"+++++++++++++++++++++++++OOOOOOOOOOOOOOOOOOOOOOOOOOOOOOOOOOOOOOOOOOOOOOOOOOOOOOOOOOOOOO+++++++++++++",
"+++++++++++++++++++++++++OOOOOOOOOOOOOOOOOOOOOOOOOOOOOOOOOOOOOOOOOOOOOOOOOOOOOOOOOOOOOO+++++++++++++",
"@@@@@@@@@@@@                                                                           $$$$$$$$$$$$$",
"@@@@@@@@@@@@                                                                           $$$$$$$$$$$$$",
"@@@@@@@@@@@@                                                                           $$$$$$$$$$$$$",
"@@@@@@@@@@@@                                                                           $$$$$$$$$$$$$",
"@@@@@@@@@@@@                                                                           $$$$$$$$$$$$$",
"@@@@@@@@@@@@                                                                           $$$$$$$$$$$$$",
"@@@@@@@@@@@@                                                                           $$$$$$$$$$$$$",
"@@@@@@@@@@@@                                                                           $$$$$$$$$$$$$",
"@@@@@@@@@@@@                                                                           $$$$$$$$$$$$$",
"@@@@@@@@@@@@                                                                           $$$$$$$$$$$$$",
"@@@@@@@@@@@@                                                                           $$$$$$$$$$$$$",
"@@@@@@@@@@@@                                                                           $$$$$$$$$$$$$",
"@@@@@@@@@@@@                                                                           $$$$$$$$$$$$$",
"                                                                                                    ",
"                                                                                                    ",
"                                                                                                    ",
"             .........................................................................              ",
"             .........................................................................              ",
"             .........................................................................              ",
"             .........................................................................              ",
"             .........................................................................              ",
"             .........................................................................              ",
"             .........................................................................              ",
"             .........................................................................              ",
"             .........................................................................              ",
"             .........................................................................              ",
"             .........................................................................              ",
"             .........................................................................              ",
"             .........................................................................              ",
"             .........................................................................              ",
"             .........................................................................              ",
"             .........................................................................              ",
"             .........................................................................              ",
"             .........................................................................              ",
"             .........................................................................              ",
"             .........................................................................              ",
"             .........................................................................              ",
"             .........................................................................              ",
"ooooooooooooooooooooooooooooooooooooooooo####################ooooooooooooooooooooooooooooooooooooooo",
"ooooooooooooooooooooooooooooooooooooooooo####################ooooooooooooooooooooooooooooooooooooooo",
"ooooooooooooooooooooooooooooooooooooooooo####################ooooooooooooooooooooooooooooooooooooooo",
"ooooooooooooooooooooooooooooooooooooooooo####################ooooooooooooooooooooooooooooooooooooooo",
"ooooooooooooooooooooooooooooooooooooooooo####################ooooooooooooooooooooooooooooooooooooooo",
"ooooooooooooooooooooooooooooooooooooooooo#####XXXXXXXXXX#####ooooooooooooooooooooooooooooooooooooooo",
"ooooooooooooooooooooooooooooooooooooooooo#####XXXXXXXXXX#####ooooooooooooooooooooooooooooooooooooooo",
"ooooooooooooooooooooooooooooooooooooooooo#####XXXXXXXXXX#####ooooooooooooooooooooooooooooooooooooooo",
"ooooooooooooooooooooooooooooooooooooooooo#####XXXXXXXXXX#####ooooooooooooooooooooooooooooooooooooooo",
"ooooooooooooooooooooooooooooooooooooooooo####################ooooooooooooooooooooooooooooooooooooooo",
"ooooooooooooooooooooooooooooooooooooooooo####################ooooooooooooooooooooooooooooooooooooooo",
"ooooooooooooooooooooooooooooooooooooooooo####################ooooooooooooooooooooooooooooooooooooooo",
"             ............................####################.........................              ",
"             ............................####################.........................              ",
"             .........................................................................              ",
"             .........................................................................              ",
"             .........................................................................              ",
"             .........................................................................              ",
"             .........................................................................              ",
"             .........................................................................              ",
"             .........................................................................              ",
"             .........................................................................              ",
"             .........................................................................              ",
"             .........................................................................              ",
"             .........................................................................              ",
"             .........................................................................              ",
"             .........................................................................              ",
"             .........................................................................              ",
"             .........................................................................              ",
"             .........................................................................              ",
"             .........................................................................              ",
"             .........................................................................              ",
"             .........................................................................              ",
"             .........................................................................              ",
"             .........................................................................              ",
"             .........................................................................              ",
"             .........................................................................              ",
"             .........................................................................              ",
"                                                                                                    ",
"                                                                                                    ",
"                                                                                                    ",
"                                                                                                    ",
"                                                                                                    ",
"                                                                                                    ",
"                                                                                                    ",
"                                                                                                    ",
"                                                                                                    ",
"                                                                                                    ",
"                                                                                                    ",
"                                                                                                    "
};
