/* XPM */
static char *d5b579125bde4a3991878618510667486tvrI5bpgmjUGSk2[] = {
/* columns rows colors chars-per-pixel */
"100 100 4 1 ",
"  c #4E4E4E",
". c gray40",
"X c #676767",
"o c #838383",
/* pixels */
"ooooooooooooooooooooooooooooooooooooooooooooooooooooooooooooooooooooooooooooooooooooooo.XXXXXXXXXXXX",
"ooooooooooooooooooooooooooooooooooooooooooooooooooooooooooooooooooooooooooooooooooooooo.XXXXXXXXXXXX",
"oooooooooooooooooooooooooooooooooooooooooooooooooooooooooooooooooooooooooooooooooooooooXXXXXXXXXXXXX",
"oooooooooooooooooooooooooooooooooooooooooooooooooooooooooooooooooooooooooooooooooooooooXXXXXXXXXXXXX",
"oooooooooooooooooooooooooooooooooooooooooooooooooooooooooooooooooooooooooooooooooooooooXXXXXXXXXXXXX",
"oooooooooooooooooooooooooooooooooooooooooooooooooooooooooooooooooooooooooooooooooooooooXXXXXXXXXXXXX",
"oooooooooooooooooooooooooooooooooooooooooooooooooooooooooooooooooooooooooooooooooooooooXXXXXXXXXXXXX",
"oooooooooooooooooooooooooooooooooooooooooooooooooooooooooooooooooooooooooooooooooooooooXXXXXXXXXXXXX",
"oooooooooooooooooooooooooooooooooooooooooooooooooooooooooooooooooooooooooooooooooooooooXXXXXXXXXXXXX",
"oooooooooooooooooooooooooooooooooooooooooooooooooooooooooooooooooooooooooooooooooooooooXXXXXXXXXXXXX",
"oooooooooooooooooooooooooooooooooooooooooooooooooooooooooooooooooooooooooooooooooooooooXXXXXXXXXXXXX",
"oooooooooooooooooooooooooooooooooooooooooooooooooooooooooooooooooooooooooooooooooooooooXXXXXXXXXXXXX",
"ooooooooooooooooooooooooo..................................................oooooooooooo             ",
"ooooooooooooooooooooooooo..................................................oooooooooooo             ",
"ooooooooooooooooooooooooo..................................................oooooooooooo             ",
"ooooooooooooooooooooooooo..................................................oooooooooooo             ",
"ooooooooooooooooooooooooo..................................................oooooooooooo             ",
"ooooooooooooooooooooooooo..................................................oooooooooooo             ",
"ooooooooooooooooooooooooo..................................................oooooooooooo             ",
"ooooooooooooooooooooooooo..................................................oooooooooooo             ",
"ooooooooooooooooooooooooo..................................................oooooooooooo             ",
"ooooooooooooooooooooooooo..................................................oooooooooooo             ",
"ooooooooooooooooooooooooo..................................................oooooooooooo             ",
"ooooooooooooooooooooooooo..................................................oooooooooooo             ",
"ooooooooooooooooooooooooo..................................................oooooooooooo             ",
"oooooooooooo.............                                     .........................             ",
"oooooooooooo.............                                     .........................             ",
"oooooooooooo.............                                     .........................             ",
"oooooooooooo.............                                     .........................             ",
"oooooooooooo.............                                     .........................             ",
"oooooooooooo.............                                     .........................             ",
"oooooooooooo.............                                     .........................             ",
"oooooooooooo.............                                     .........................             ",
"oooooooooooo.............                                     .........................             ",
"oooooooooooo.............                                     .........................             ",
"oooooooooooo.............                                     .........................             ",
"oooooooooooo.............                                     .........................             ",
"oooooooooooo.............            .........................ooooooooooooo............             ",
"oooooooooooo.............            .........................ooooooooooooo............             ",
"oooooooooooo.............            .........................ooooooooooooo............             ",
"oooooooooooo.............            .........................ooooooooooooo............             ",
"oooooooooooo.............            .........................ooooooooooooo............             ",
"oooooooooooo.............            .........................ooooooooooooo............             ",
"oooooooooooo.............            .........................ooooooooooooo............             ",
"oooooooooooo.............            .........................ooooooooooooo............             ",
"oooooooooooo.............            .........................ooooooooooooo............             ",
"oooooooooooo.............            .........................ooooooooooooo............             ",
"oooooooooooo.............            .........................ooooooooooooo............             ",
"oooooooooooo.............            .........................ooooooooooooo............             ",
"oooooooooooo.............            .........................ooooooooooooo............             ",
"oooooooooooo.............            .........................ooooooooooooo............             ",
"oooooooooooo.............            .........................ooooooooooooo............             ",
"oooooooooooo.............            .........................ooooooooooooo............             ",
"oooooooooooo.............            .........................ooooooooooooo............             ",
"oooooooooooo.............            .........................ooooooooooooo............             ",
"oooooooooooo.............            .........................ooooooooooooo............             ",
"oooooooooooo.............            .........................ooooooooooooo............             ",
"oooooooooooo.............            .........................ooooooooooooo............             ",
"oooooooooooo.............            .........................ooooooooooooo............             ",
"oooooooooooo.............            .........................ooooooooooooo............             ",
"oooooooooooo.............            .........................ooooooooooooo............             ",
"oooooooooooo.............            .........................ooooooooooooo............             ",
"oooooooooooo.........................oooooooooooooooooooooooooooooooooooooo............             ",
"oooooooooooo.........................oooooooooooooooooooooooooooooooooooooo............             ",
"oooooooooooo.........................oooooooooooooooooooooooooooooooooooooo............             ",
"oooooooooooo.........................oooooooooooooooooooooooooooooooooooooo............             ",
"oooooooooooo.........................oooooooooooooooooooooooooooooooooooooo............             ",
"oooooooooooo.........................oooooooooooooooooooooooooooooooooooooo............             ",
"oooooooooooo.........................oooooooooooooooooooooooooooooooooooooo............             ",
"oooooooooooo.........................oooooooooooooooooooooooooooooooooooooo............             ",
"oooooooooooo.........................oooooooooooooooooooooooooooooooooooooo............             ",
"oooooooooooo.........................oooooooooooooooooooooooooooooooooooooo............             ",
"oooooooooooo.........................oooooooooooooooooooooooooooooooooooooo............             ",
"oooooooooooo.........................oooooooooooooooooooooooooooooooooooooo............             ",
"oooooooooooo.........................oooooooooooooooooooooooooooooooooooooo............             ",
"ooooooooooooooooooooooooo..................................................oooooooooooo             ",
"ooooooooooooooooooooooooo..................................................oooooooooooo             ",
"ooooooooooooooooooooooooo..................................................oooooooooooo             ",
"ooooooooooooooooooooooooo..................................................oooooooooooo             ",
"ooooooooooooooooooooooooo..................................................oooooooooooo             ",
"ooooooooooooooooooooooooo..................................................oooooooooooo             ",
"ooooooooooooooooooooooooo..................................................oooooooooooo             ",
"ooooooooooooooooooooooooo..................................................oooooooooooo             ",
"ooooooooooooooooooooooooo..................................................oooooooooooo             ",
"ooooooooooooooooooooooooo..................................................oooooooooooo             ",
"ooooooooooooooooooooooooo..................................................oooooooooooo             ",
"ooooooooooooooooooooooooo..................................................oooooooooooo             ",
"............                                                                                        ",
"............                                                                                        ",
"............                                                                                        ",
"............                                                                                        ",
"............                                                                                        ",
"............                                                                                        ",
"............                                                                                        ",
"............                                                                                        ",
"............                                                                                        ",
"............                                                                                        ",
"............                                                                                        ",
"............                                                                                        ",
"............                                                                                        "
};
